<svg xmlns="http://www.w3.org/2000/svg" xmlns:xlink="http://www.w3.org/1999/xlink" version="1.1" id="Layer_1" x="0px" y="0px" width="100px" height="100px" viewBox="0 0 100 100" enable-background="new 0 0 100 100" xml:space="preserve">
<g id="XMLID_11_">
	<g>
		<g id="XMLID_12_">
			<g>
				<path d="M52.188,57.179c-0.662,0.344-1.363,0.503-2.061,0.503c-0.468,0-0.921-0.073-1.351-0.221      c-0.626-0.024-1.228-0.221-1.767-0.601L5.975,28.868c-1.742-1.19-2.11-3.657-0.848-5.522c0.7-1.019,1.743-1.644,2.835-1.804      l0.099-0.024c0.466-0.172,0.97-0.27,1.497-0.27h78.131c0.185,0,0.368,0.012,0.541,0.037c0.221-0.025,0.454-0.049,0.687-0.049      c1.019,0,1.939,0.368,2.603,0.958c0.674,0.601,1.079,1.424,1.079,2.319v48.177c0,1.805-1.645,3.264-3.682,3.264      c-0.085,0-0.159,0-0.245-0.012c-0.244,0.073-0.502,0.111-0.773,0.111H9.767c-0.308,0-0.602-0.049-0.884-0.135      c-2.296-0.074-4.136-1.951-4.136-4.283V41.373c0-1.19,0.479-2.271,1.265-3.043c0.772-0.773,1.852-1.252,3.03-1.252      c2.368,0,4.295,1.914,4.295,4.295v26.789h71.898V28.844H20.454l28.863,19.683l19.462-10.05c2.209-1.128,4.921-0.27,6.062,1.939      s0.271,4.92-1.938,6.062L52.188,57.179z"/>
			</g>
		</g>
	</g>
</g>
</svg>