<svg xmlns="http://www.w3.org/2000/svg" xmlns:xlink="http://www.w3.org/1999/xlink" version="1.1" id="Your_Icon" x="0px" y="0px" width="100px" height="100px" viewBox="0 0 100 100" enable-background="new 0 0 100 100" xml:space="preserve">
<g>
</g>
<g>
	<path fill="#000000" d="M91.736,73.65l-5.827-11.026c-0.491-0.93-1.472-2.19-2.9-3.188c0.543-0.9,0.888-2.024,0.888-3.419V25.711   c0-2.565-1.699-6.38-6.381-6.38H22.484c-2.565,0-6.381,1.699-6.381,6.38v30.306c0,1.025,0.279,2.25,0.905,3.353   c-1.134,0.738-2.202,1.786-2.978,3.254L8.203,73.65c-0.243,0.461-1.394,2.864-0.135,4.955c0.567,0.94,1.785,2.063,4.365,2.063   h75.074c0.521,0,3.186-0.105,4.444-2.195C92.518,77.531,92.941,75.931,91.736,73.65z M20.828,25.711c0-0.396,0-1.603,1.656-1.655   h55.032c0.396,0,1.604,0,1.655,1.655v30.306c0,0.396,0,1.599-1.679,1.656H22.484c-0.396,0-1.604,0-1.656-1.656V25.711z    M87.487,75.944H12.433c-0.032,0-0.061-0.001-0.09-0.001c0.012-0.031,0.025-0.061,0.037-0.085l5.828-11.028   c1.168-2.209,3.723-2.291,3.806-2.294h55.912c2.498,0,3.764,2.222,3.806,2.294l5.827,11.028c0.015,0.027,0.028,0.053,0.041,0.078   C87.56,75.94,87.523,75.943,87.487,75.944z"/>
	<path fill="#000000" d="M23.768,68.768h52.464c1.306,0,2.362-1.058,2.362-2.362s-1.057-2.362-2.362-2.362H23.768   c-1.305,0-2.362,1.058-2.362,2.362S22.463,68.768,23.768,68.768z"/>
	<path fill="#000000" d="M79.709,69.713H20.291c-1.305,0-2.362,1.058-2.362,2.362s1.057,2.362,2.362,2.362h59.418   c1.304,0,2.362-1.058,2.362-2.362S81.013,69.713,79.709,69.713z"/>
</g>
</svg>