<svg xmlns="http://www.w3.org/2000/svg" xmlns:xlink="http://www.w3.org/1999/xlink" version="1.1" id="Layer_1" x="0px" y="0px" width="100.0px" height="100px" viewBox="0 0 120 120" enable-background="new 0 0 120 120" xml:space="preserve">
<path d="M21.729,5.935v106.86h76V5.935H21.729z M94.045,109.57H24.954V9.201h69.091V109.57z"/>
<circle cx="40.658" cy="21.173" r="6.026"/>
<path d="M51.714,33.801H30.021c0.019-3.448,1.969-6.477,4.91-8.237c1.144,1.792,3.271,2.997,5.706,2.997  c2.523,0,4.717-1.293,5.827-3.192C49.598,27.094,51.693,30.221,51.714,33.801z"/>
<rect x="41.306" y="41.171" width="48.363" height="2.764"/>
<rect x="70.74" y="13.765" width="18.929" height="2.764"/>
<rect x="70.74" y="18.832" width="18.929" height="2.764"/>
<rect x="30.021" y="46.929" width="59.648" height="2.764"/>
<rect x="30.021" y="52.686" width="59.648" height="2.764"/>
<rect x="30.021" y="58.444" width="59.648" height="2.763"/>
<rect x="30.021" y="64.201" width="59.648" height="2.764"/>
<rect x="30.021" y="69.959" width="59.648" height="2.764"/>
<rect x="30.021" y="75.717" width="59.648" height="2.764"/>
<rect x="30.021" y="81.475" width="59.648" height="2.764"/>
<rect x="30.021" y="87.231" width="59.648" height="2.764"/>
<rect x="30.021" y="92.989" width="25.679" height="2.764"/>
<rect x="68.788" y="101.855" width="20.727" height="2.764"/>
</svg>