<svg xmlns="http://www.w3.org/2000/svg" xmlns:xlink="http://www.w3.org/1999/xlink" version="1.1" x="0px" y="0px" width="100px" height="100px" viewBox="0 0 100 100" enable-background="new 0 0 100 100" xml:space="preserve">
<g id="Layer_1">
	<g>
		<circle cx="45.689" cy="26.241" r="12.912"/>
		<path d="M70.678,67.509H57.509c-1.363,0-2.468,1.882-2.468,3.246c0,1.362,1.104,3.245,2.468,3.245h13.169    c1.362,0,2.468-1.883,2.468-3.245C73.145,69.391,72.04,67.509,70.678,67.509z"/>
		<path d="M84.576,50.986c-0.007-0.014-0.015-0.025-0.02-0.037l9.062-21.421c0.885-2.094-0.094-4.509-2.186-5.393    c-2.092-0.882-4.507,0.092-5.393,2.185L72.968,57.22c-0.888,2.096,0.093,4.511,2.186,5.396c0.521,0.22,1.066,0.326,1.603,0.326    c1.601,0,3.126-0.944,3.789-2.513l1.506-3.558l4.644,10.637h-7.788c-1.363,0-2.468,1.882-2.468,3.246    c0,1.362,1.105,3.245,2.468,3.245h15.255L84.576,50.986z"/>
		<path d="M22.132,73.98c0.016-0.393,0.016-0.788-0.022-1.186c0.778-2.9,5.055-10.437,10.022-17.778    c1.707,4.498,3.867,8.285,7.49,9.373c2.876,0.862,12.164,1.012,18.235,1.012c1.777,0,3.28-0.014,4.262-0.025    c1.93-0.021,3.479-1.606,3.454-3.535c-0.021-1.917-1.582-3.456-3.493-3.456c-0.015,0-0.027,0-0.04,0    c-8.38,0.098-18.566-0.139-20.405-0.69c-1.645-0.625-3.863-7.637-4.808-10.63c-0.131-0.414-0.258-0.809-0.386-1.21    c-0.016-2.871-1.349-5.698-3.86-7.501c-4.167-2.989-9.968-2.04-12.96,2.125C4.636,61.332,3.141,70.007,3.495,73.98H22.132z"/>
	</g>
</g>
<g id="nyt_x5F_exporter_x5F_info" display="none">
</g>
</svg>